<svg width="976" height="1249" viewBox="0 0 976 1249" fill="none" xmlns="http://www.w3.org/2000/svg">
<path d="M975.505 1181.5C871.13 1256.68 727.583 1245.63 557.005 1234.5C386.426 1223.37 200.505 1205.5 150.505 1165C100.505 1124.5 -12.3768 991.431 9.85698 838.77C31.8549 685.991 69.5076 564.966 136.737 474.41C203.613 383.972 300.183 323.768 406.224 235.254C512.265 146.74 628.013 29.4457 752.965 14.4587C823.994 5.93927 903.5 -5.5 974.5 5.00004C974.5 51.767 975.005 121 975.005 193C975.005 256.5 975.743 300.438 975.005 431.999C974.502 563.677 975.504 661.498 975.504 887.498C974.999 1040.5 975.506 1073.5 975.505 1181.5Z" fill="#222222"/>
<g clip-path="url(#clip0_41_778)">
<path d="M451.141 899.255L451.848 883.355C459.22 879.414 467.442 877.333 475.801 877.291C464.297 886.697 465.734 904.827 457.935 917.475C455.472 921.401 452.157 924.723 448.236 927.194C444.315 929.665 439.888 931.222 435.284 931.749L425.657 937.643C424.336 930.279 424.627 922.716 426.51 915.475C428.394 908.234 431.825 901.488 436.566 895.701C439.259 892.48 442.346 889.612 445.755 887.163C448.061 893.242 451.141 899.255 451.141 899.255Z" fill="#3B3B3B"/>
<path d="M849.072 667.577C875.027 647.808 887.424 614.588 879.663 582.899C879.47 582.111 879.267 581.326 879.052 580.542C873.907 561.731 861.178 543.853 842.626 537.843C827.048 532.796 810.045 536.677 793.794 534.67C761.892 530.73 737.159 504.918 719.756 477.892C702.353 450.866 688.979 420.615 665.854 398.287C627.737 361.484 565.559 353.561 518.299 377.517C471.04 401.473 440.936 454.621 442.22 507.59C443.504 560.559 474.949 611.201 520.615 638.069C537.391 647.94 556.794 654.932 576.104 652.486C592.859 650.363 608.083 641.36 624.759 638.687C650.978 634.485 677.03 646.339 699.707 660.153C722.384 673.967 744.289 690.341 770.058 696.745C795.08 702.963 826.08 685.09 849.072 667.577Z" fill="#333333"/>
<path d="M643.705 431.023H385.135C379.742 431.029 374.572 433.174 370.759 436.987C366.946 440.8 364.801 445.97 364.795 451.363V580.053C364.801 585.445 366.946 590.615 370.759 594.428C374.572 598.241 379.742 600.386 385.135 600.393H643.705C649.098 600.388 654.269 598.244 658.082 594.43C661.896 590.617 664.04 585.446 664.045 580.053V451.363C664.04 445.97 661.896 440.799 658.082 436.985C654.269 433.172 649.098 431.027 643.705 431.023Z" fill="#404040"/>
<path d="M643.706 601.395H385.14C379.482 601.389 374.057 599.138 370.057 595.138C366.056 591.137 363.806 585.713 363.799 580.055V451.361C363.806 445.703 366.056 440.279 370.057 436.278C374.057 432.278 379.482 430.027 385.14 430.021H643.706C649.364 430.027 654.788 432.278 658.789 436.278C662.789 440.279 665.04 445.703 665.046 451.361V580.055C665.04 585.713 662.789 591.137 658.789 595.138C654.788 599.138 649.364 601.389 643.706 601.395ZM385.14 432.021C380.012 432.027 375.096 434.066 371.47 437.692C367.845 441.318 365.805 446.234 365.799 451.361V580.055C365.805 585.183 367.845 590.098 371.47 593.724C375.096 597.35 380.012 599.389 385.14 599.395H643.706C648.834 599.389 653.749 597.35 657.375 593.724C661.001 590.098 663.04 585.183 663.046 580.055V451.361C663.04 446.234 661.001 441.318 657.375 437.692C653.749 434.066 648.834 432.027 643.706 432.021H385.14Z" fill="#454545"/>
<path d="M655.6 636.972H407.811C405.67 636.972 403.615 636.121 402.101 634.607C400.586 633.092 399.736 631.038 399.736 628.896C399.736 626.754 400.586 624.7 402.101 623.186C403.615 621.671 405.67 620.821 407.811 620.821H655.6C657.742 620.821 659.796 621.671 661.31 623.186C662.825 624.7 663.676 626.754 663.676 628.896C663.676 631.038 662.825 633.092 661.31 634.607C659.796 636.121 657.742 636.972 655.6 636.972Z" fill="#454545"/>
<path d="M487.247 559.964C485.779 559.96 484.336 559.584 483.053 558.872C481.68 558.131 480.535 557.031 479.741 555.688C478.947 554.345 478.533 552.812 478.545 551.252V479.43C478.545 477.872 478.964 476.344 479.757 475.003C480.549 473.663 481.688 472.56 483.053 471.81C484.418 471.06 485.959 470.69 487.515 470.74C489.072 470.789 490.587 471.256 491.901 472.091L560.032 508.002C561.267 508.787 562.285 509.871 562.99 511.154C563.694 512.437 564.064 513.877 564.064 515.341C564.064 516.805 563.694 518.245 562.99 519.527C562.285 520.81 561.267 521.894 560.032 522.679L491.901 558.591C490.513 559.483 488.898 559.96 487.247 559.964Z" fill="#666666"/>
<path d="M887.351 524.156H779.299C777.046 524.153 774.885 523.257 773.291 521.664C771.698 520.07 770.802 517.91 770.799 515.656V461.876C770.802 459.623 771.698 457.462 773.291 455.869C774.885 454.275 777.046 453.379 779.299 453.376H887.351C889.605 453.379 891.765 454.275 893.359 455.869C894.952 457.462 895.849 459.623 895.851 461.876V515.656C895.849 517.91 894.952 520.07 893.359 521.664C891.765 523.257 889.605 524.153 887.351 524.156Z" fill="#404040"/>
<path d="M887.351 525.156H779.299C776.78 525.153 774.366 524.151 772.585 522.37C770.804 520.589 769.802 518.175 769.799 515.656V461.876C769.802 459.358 770.804 456.943 772.585 455.162C774.366 453.381 776.78 452.379 779.299 452.376H887.351C889.87 452.379 892.285 453.381 894.066 455.162C895.847 456.943 896.849 459.358 896.851 461.876V515.656C896.849 518.175 895.847 520.589 894.066 522.37C892.285 524.151 889.87 525.153 887.351 525.156ZM779.299 454.376C777.311 454.378 775.404 455.169 773.998 456.575C772.592 457.981 771.801 459.888 771.799 461.876V515.656C771.801 517.644 772.592 519.551 773.998 520.957C775.404 522.363 777.311 523.154 779.299 523.156H887.351C889.34 523.154 891.246 522.363 892.652 520.957C894.058 519.551 894.849 517.644 894.851 515.656V461.876C894.849 459.888 894.058 457.981 892.652 456.575C891.246 455.169 889.34 454.378 887.351 454.376H779.299Z" fill="#454545"/>
<path d="M869.6 550.472H796.811C794.671 550.47 792.619 549.618 791.107 548.103C789.594 546.589 788.745 544.536 788.745 542.396C788.745 540.256 789.594 538.203 791.107 536.689C792.619 535.175 794.671 534.323 796.811 534.321H869.6C871.742 534.321 873.796 535.171 875.31 536.686C876.825 538.2 877.676 540.254 877.676 542.396C877.676 544.538 876.825 546.592 875.31 548.107C873.796 549.621 871.742 550.472 869.6 550.472Z" fill="#454545"/>
<path d="M821.706 507.905C821.093 507.903 820.49 507.746 819.953 507.448C819.38 507.139 818.901 506.679 818.569 506.118C818.237 505.557 818.065 504.916 818.07 504.264V474.25C818.07 473.599 818.245 472.961 818.576 472.4C818.907 471.84 819.383 471.38 819.953 471.066C820.524 470.753 821.168 470.598 821.818 470.619C822.469 470.64 823.102 470.835 823.651 471.184L852.122 486.19C852.638 486.518 853.064 486.971 853.358 487.508C853.653 488.044 853.807 488.645 853.807 489.257C853.807 489.869 853.653 490.471 853.358 491.007C853.064 491.543 852.638 491.996 852.122 492.324L823.651 507.331C823.071 507.704 822.396 507.903 821.706 507.905Z" fill="#71DBF2"/>
<path d="M818.351 755.512H710.299C708.046 755.509 705.885 754.613 704.292 753.02C702.698 751.426 701.802 749.266 701.799 747.012V693.232C701.802 690.979 702.698 688.818 704.291 687.225C705.885 685.631 708.046 684.735 710.299 684.732H818.351C820.605 684.735 822.765 685.631 824.359 687.225C825.952 688.818 826.849 690.979 826.851 693.232V747.012C826.849 749.266 825.952 751.426 824.359 753.02C822.765 754.613 820.605 755.509 818.351 755.512Z" fill="#404040"/>
<path d="M818.351 756.512H710.299C707.781 756.509 705.366 755.507 703.585 753.726C701.804 751.945 700.802 749.531 700.799 747.012V693.232C700.802 690.713 701.804 688.299 703.585 686.518C705.366 684.737 707.781 683.735 710.299 683.732H818.351C820.87 683.735 823.285 684.737 825.066 686.518C826.847 688.299 827.849 690.713 827.851 693.232V747.012C827.849 749.531 826.847 751.945 825.066 753.726C823.285 755.507 820.87 756.509 818.351 756.512ZM710.299 685.732C708.311 685.734 706.404 686.525 704.998 687.931C703.592 689.337 702.801 691.244 702.799 693.232V747.012C702.801 749 703.592 750.907 704.998 752.313C706.404 753.719 708.311 754.51 710.299 754.512H818.351C820.34 754.51 822.246 753.719 823.652 752.313C825.058 750.907 825.849 749 825.851 747.012V693.232C825.849 691.244 825.058 689.337 823.652 687.931C822.246 686.525 820.34 685.734 818.351 685.732H710.299Z" fill="#454545"/>
<path d="M800.6 781.972H727.811C725.671 781.97 723.619 781.118 722.107 779.603C720.594 778.089 719.745 776.036 719.745 773.896C719.745 771.756 720.594 769.703 722.107 768.189C723.619 766.675 725.671 765.823 727.811 765.821H800.6C802.742 765.821 804.796 766.671 806.31 768.186C807.825 769.7 808.676 771.754 808.676 773.896C808.676 776.038 807.825 778.092 806.31 779.607C804.796 781.121 802.742 781.972 800.6 781.972Z" fill="#454545"/>
<path d="M752.444 740.905C751.83 740.903 751.227 740.746 750.691 740.448C750.117 740.139 749.638 739.679 749.307 739.118C748.975 738.557 748.802 737.916 748.807 737.264V707.25C748.807 706.6 748.982 705.961 749.313 705.401C749.645 704.84 750.12 704.38 750.691 704.066C751.261 703.753 751.905 703.598 752.556 703.619C753.206 703.64 753.839 703.835 754.388 704.184L782.859 719.191C783.376 719.519 783.801 719.972 784.095 720.508C784.39 721.044 784.544 721.646 784.544 722.257C784.544 722.869 784.39 723.471 784.095 724.007C783.801 724.543 783.376 724.996 782.859 725.324L754.388 740.331C753.808 740.704 753.133 740.903 752.444 740.905Z" fill="#71DBF2"/>
<path d="M451.441 569.448L396.137 569.819C396.137 569.819 364.639 559.665 350.355 561.787L344.894 583.241L384.128 596.241L452.412 586.334C453.944 587.108 455.654 587.464 457.368 587.368C459.082 587.271 460.741 586.725 462.177 585.783C463.612 584.842 464.775 583.539 465.547 582.006C466.32 580.472 466.674 578.762 466.576 577.048C466.477 575.334 465.929 573.676 464.986 572.241C464.043 570.807 462.739 569.645 461.204 568.875C459.67 568.104 457.96 567.752 456.246 567.852C454.532 567.953 452.874 568.503 451.441 569.448Z" fill="#878792"/>
<path d="M383.66 598.318L318.046 579.447L312.073 557.19C310.517 554.22 309.822 550.875 310.068 547.531C310.313 544.187 311.489 540.979 313.462 538.269C319.064 530.682 323.442 538.218 331.392 543.291C345.327 544.276 380.111 556.178 394.231 569.959L393.119 578.43L383.66 598.318Z" fill="#A2A1AA"/>
<path d="M440.748 580.151C439.28 580.146 437.837 579.771 436.554 579.058C435.181 578.318 434.036 577.217 433.241 575.874C432.447 574.532 432.034 572.998 432.046 571.438V499.616C432.046 498.059 432.464 496.53 433.257 495.19C434.05 493.849 435.189 492.746 436.553 491.996C437.918 491.246 439.46 490.877 441.016 490.926C442.573 490.976 444.087 491.442 445.402 492.277L513.533 528.189C514.768 528.973 515.786 530.058 516.49 531.34C517.195 532.623 517.565 534.063 517.565 535.527C517.565 536.991 517.195 538.431 516.49 539.714C515.786 540.997 514.768 542.081 513.533 542.866L445.402 578.777C444.013 579.669 442.399 580.146 440.748 580.151Z" fill="#71DBF2"/>
<path d="M394.978 926.089L408.937 926.088L415.577 872.247L394.976 872.249L394.978 926.089Z" fill="#878792"/>
<path d="M391.417 921.531L395.346 921.531L410.685 915.293L418.906 921.53H418.908C423.554 921.53 428.009 923.376 431.295 926.661C434.58 929.946 436.426 934.402 436.426 939.048V939.617L391.418 939.619L391.417 921.531Z" fill="#7A7986"/>
<path d="M295.578 912.948L308.8 917.424L332.358 868.559L312.845 861.952L295.578 912.948Z" fill="#878792"/>
<path d="M293.667 907.489L297.388 908.749L313.918 907.76L319.704 916.305L319.705 916.305C324.106 917.795 327.734 920.973 329.792 925.138C331.85 929.303 332.169 934.116 330.679 938.516L330.497 939.055L287.866 924.621L293.667 907.489Z" fill="#7A7986"/>
<path d="M311.758 694.18C311.758 694.18 310.128 713.739 314.202 732.483C318.277 751.227 327.046 813.448 327.046 813.448C309.285 842.641 298.991 871.369 297.046 900.448L322.046 902.448L357.843 817.513L361.47 732.483L387.548 790.345L386.207 794.815C385.89 795.872 385.929 797.004 386.318 798.037C386.707 799.07 387.424 799.946 388.36 800.532C388.36 800.532 385.918 816.423 387.548 816.423C389.178 816.423 393.253 818.868 393.253 818.868C383.093 850.496 381.729 880.785 391.046 909.448L413.046 908.448L427.481 783.825L416.886 716.184L416.071 703.145L412.404 703.296L410.537 697.848L407.107 688.476L311.758 694.18Z" fill="#94949E"/>
<path d="M310.349 698.289L310.204 698.085C302.446 687.225 314.113 661.128 315.873 657.345L308.462 654.94L301.981 600.099L297.241 581.155C295.455 573.993 295.608 566.485 297.682 559.401C299.757 552.317 303.679 545.914 309.046 540.847L320.002 530.517L333.317 510.816H354.788L362.15 524.722C369.288 526.372 375.62 530.473 380.045 536.312C384.47 542.15 386.706 549.356 386.364 556.674L384.695 593.145L391.227 638.555L391.231 646.773L402.571 665.365L405.042 676.892C406.064 678.241 412.812 687.238 412.812 689.698C412.812 690.067 412.539 690.424 411.954 690.82C407.356 693.934 381.939 700.282 370.69 695.781C358.708 690.99 311.076 698.177 310.596 698.25L310.349 698.289Z" fill="#AFAFB6"/>
<path d="M529.67 939.258C529.67 939.414 529.64 939.568 529.581 939.712C529.522 939.856 529.435 939.987 529.325 940.098C529.215 940.208 529.084 940.296 528.941 940.356C528.797 940.416 528.643 940.447 528.487 940.448H248.19C247.874 940.448 247.571 940.322 247.348 940.099C247.125 939.876 247 939.573 247 939.258C247 938.942 247.125 938.639 247.348 938.416C247.571 938.193 247.874 938.068 248.19 938.068H528.48C528.794 938.067 529.096 938.191 529.32 938.413C529.543 938.635 529.669 938.936 529.67 939.251V939.258Z" fill="#333333"/>
<path d="M346.826 504.457C362.531 504.457 375.262 491.725 375.262 476.02C375.262 460.316 362.531 447.584 346.826 447.584C331.121 447.584 318.39 460.316 318.39 476.02C318.39 491.725 331.121 504.457 346.826 504.457Z" fill="#6E6D78"/>
<path d="M452.386 497.852L408.513 531.525C408.513 531.525 377.27 542.438 367.161 552.75L375.755 573.153L414.884 559.84L463.351 510.73C465.04 510.423 466.618 509.675 467.927 508.564C469.235 507.452 470.228 506.015 470.805 504.398C471.382 502.781 471.522 501.041 471.213 499.352C470.903 497.663 470.154 496.086 469.041 494.778C467.928 493.471 466.49 492.48 464.872 491.905C463.254 491.33 461.513 491.191 459.825 491.503C458.137 491.815 456.56 492.566 455.254 493.68C453.948 494.795 452.959 496.234 452.386 497.852Z" fill="#878792"/>
<path d="M415.764 561.779L354.818 579.625L333.863 572.189C330.83 570.76 328.257 568.512 326.435 565.698C324.612 562.883 323.614 559.616 323.551 556.264C323.439 546.834 331.478 550.2 340.878 549.447C352.585 541.823 387.503 530.32 407.078 532.787L411.304 540.213L415.764 561.779Z" fill="#BDBCC2"/>
<path d="M366.325 443.189C364.287 443.128 364.986 439.287 363.344 438.061C363.336 438.099 363.328 438.136 363.32 438.173C363.104 439.003 362.628 439.741 361.962 440.28C361.295 440.819 360.473 441.13 359.616 441.166C358.76 441.203 357.914 440.963 357.204 440.483C356.494 440.003 355.957 439.307 355.671 438.499C355.399 437.564 354.906 436.708 354.234 436.003C353.562 435.298 352.731 434.764 351.809 434.448C351.707 438.008 349.014 441.098 345.801 442.636C342.588 444.174 338.924 444.43 335.363 444.483C331.801 444.535 328.188 444.416 324.734 445.288C321.28 446.159 317.921 448.208 316.445 451.451C314.969 454.693 316.022 459.156 319.249 460.665C316.749 460.679 314.628 462.741 313.764 465.087C313.055 467.493 312.87 470.022 313.222 472.506C313.924 481.701 315.637 491.6 322.333 497.942C327.436 502.775 334.74 504.722 341.768 504.694C348.797 504.666 347.561 504.02 354.356 502.226C354.356 502.226 360.817 483.704 359.19 481.882C357.563 480.06 356.212 477.729 356.507 475.304C356.801 472.879 359.407 470.707 361.668 471.63C361.288 470.658 361.002 470.473 360.822 470.522C360.937 470.246 361.036 469.964 361.121 469.677C361.547 468.216 362.313 466.877 363.357 465.77C364.401 464.663 365.693 463.819 367.127 463.309C368.574 462.839 370.132 462.823 371.589 463.264C373.046 463.705 374.333 464.581 375.277 465.775C382.718 458.797 378.102 443.539 366.325 443.189Z" fill="#94949E"/>
<path d="M606.075 431.023V458.183C606.075 459.533 603.715 460.663 600.535 460.973C600.508 460.971 600.481 460.974 600.455 460.983C599.925 461.023 599.365 461.053 598.795 461.053C597.042 461.085 595.297 460.8 593.645 460.213C593.495 460.153 593.345 460.083 593.195 460.023C593.055 459.943 592.905 459.873 592.765 459.793C591.975 459.323 591.515 458.773 591.515 458.183V431.023H606.075Z" fill="#4A4A4A"/>
<path d="M827.099 765.157C833.932 765.157 839.472 759.618 839.472 752.785C839.472 745.952 833.932 740.413 827.099 740.413C820.266 740.413 814.727 745.952 814.727 752.785C814.727 759.618 820.266 765.157 827.099 765.157Z" fill="#3F3D56"/>
<path d="M826.173 757.73C826.147 757.73 826.12 757.729 826.094 757.728C825.861 757.716 825.633 757.655 825.426 757.547C825.219 757.44 825.038 757.289 824.894 757.104L822.827 754.446C822.696 754.278 822.6 754.087 822.544 753.882C822.487 753.677 822.472 753.463 822.498 753.252C822.524 753.041 822.592 752.837 822.697 752.652C822.802 752.467 822.943 752.305 823.11 752.174L823.185 752.117C823.353 751.986 823.545 751.89 823.75 751.833C823.955 751.777 824.169 751.761 824.38 751.788C824.591 751.814 824.795 751.882 824.98 751.987C825.164 752.092 825.327 752.233 825.457 752.401C825.562 752.535 825.694 752.645 825.845 752.723C825.995 752.801 826.161 752.846 826.331 752.854C826.501 752.863 826.67 752.834 826.828 752.771C826.986 752.707 827.128 752.611 827.245 752.488L831.443 748.056C831.739 747.744 832.146 747.563 832.575 747.551C833.004 747.54 833.42 747.699 833.732 747.993L833.801 748.059C833.955 748.205 834.079 748.38 834.166 748.574C834.253 748.769 834.3 748.978 834.306 749.19C834.312 749.403 834.275 749.615 834.199 749.813C834.123 750.012 834.009 750.193 833.863 750.347L827.348 757.224C827.196 757.384 827.014 757.511 826.812 757.598C826.61 757.685 826.393 757.73 826.173 757.73Z" fill="white"/>
<path d="M895.099 535.157C901.932 535.157 907.472 529.618 907.472 522.785C907.472 515.952 901.932 510.413 895.099 510.413C888.266 510.413 882.727 515.952 882.727 522.785C882.727 529.618 888.266 535.157 895.099 535.157Z" fill="#3F3D56"/>
<path d="M894.173 527.73C894.147 527.73 894.12 527.729 894.094 527.728C893.861 527.716 893.633 527.655 893.426 527.547C893.219 527.44 893.038 527.289 892.894 527.104L890.827 524.446C890.696 524.278 890.6 524.087 890.544 523.882C890.487 523.677 890.472 523.463 890.498 523.252C890.524 523.041 890.592 522.837 890.697 522.652C890.802 522.467 890.943 522.305 891.11 522.174L891.185 522.117C891.353 521.986 891.545 521.89 891.75 521.833C891.955 521.777 892.169 521.761 892.38 521.788C892.591 521.814 892.795 521.882 892.98 521.987C893.164 522.092 893.327 522.233 893.457 522.401C893.562 522.535 893.694 522.645 893.845 522.723C893.995 522.801 894.161 522.846 894.331 522.854C894.501 522.863 894.67 522.834 894.828 522.771C894.986 522.707 895.128 522.611 895.245 522.488L899.443 518.056C899.739 517.744 900.146 517.563 900.575 517.551C901.004 517.54 901.42 517.699 901.732 517.993L901.801 518.059C901.955 518.205 902.079 518.38 902.166 518.574C902.253 518.769 902.3 518.978 902.306 519.19C902.312 519.403 902.275 519.615 902.199 519.813C902.123 520.012 902.009 520.193 901.863 520.347L895.348 527.224C895.196 527.384 895.014 527.511 894.812 527.598C894.61 527.685 894.393 527.73 894.173 527.73Z" fill="white"/>
</g>
<defs>
<clipPath id="clip0_41_778">
<rect width="660.472" height="645.448" fill="white" transform="translate(247 295)"/>
</clipPath>
</defs>
</svg>
