<svg width="794" height="1186" viewBox="0 0 794 1186" fill="none" xmlns="http://www.w3.org/2000/svg">
<path d="M-0.000137201 6.90827C-0.000137201 6.90827 80.404 7.46787 124.021 6.21703C262.092 2.25742 425.593 -18.313 533.044 47.1984C640.495 112.71 692.375 264.078 739.65 434.807C786.812 605.297 829.481 795.384 747.525 898.302C665.682 1001.46 459.214 1017.44 289.231 1071.37C180.701 1105.8 -5.99053e-05 1185.88 -5.99053e-05 1185.88L-0.000137201 6.90827Z" fill="#1E1E1E"/>
<g clip-path="url(#clip0_47_782)">
<path d="M586.245 642.65V696.25H148.755V366.34H586.245V642.65Z" fill="#343434"/>
<path d="M148.755 695.75V696.75H586.245V695.75H148.755ZM148.755 365.84V366.84H586.245V365.84H148.755Z" fill="#4B4B4B"/>
<path d="M233.345 639.28H148.755V643.85H233.345C233.951 643.85 234.532 643.609 234.961 643.181C235.389 642.752 235.63 642.171 235.63 641.565C235.63 640.959 235.389 640.378 234.961 639.949C234.532 639.521 233.951 639.28 233.345 639.28Z" fill="#4B4B4B"/>
<path d="M233.345 623.28H148.755V627.85H233.345C233.951 627.85 234.532 627.609 234.961 627.181C235.389 626.752 235.63 626.171 235.63 625.565C235.63 624.959 235.389 624.378 234.961 623.949C234.532 623.521 233.951 623.28 233.345 623.28Z" fill="#4B4B4B"/>
<path d="M234.025 607.38C233.917 607.349 233.807 607.326 233.695 607.31C233.58 607.29 233.462 607.28 233.345 607.28H148.755V611.85H233.345C233.883 611.847 234.403 611.656 234.815 611.31C235.128 611.046 235.363 610.702 235.498 610.315C235.633 609.929 235.661 609.513 235.58 609.112C235.5 608.71 235.313 608.338 235.039 608.034C234.766 607.729 234.415 607.503 234.025 607.38Z" fill="#4B4B4B"/>
<path d="M264.265 601.15L256.815 568.09L254.385 557.32C254.184 556.432 253.637 555.66 252.867 555.174C252.096 554.688 251.164 554.528 250.275 554.73L246.605 555.56L217.175 562.2C216.736 562.299 216.32 562.484 215.952 562.743C215.584 563.003 215.271 563.333 215.031 563.713C214.79 564.094 214.627 564.519 214.55 564.962C214.474 565.406 214.486 565.861 214.585 566.3C213.005 581.01 216.125 594.58 222.895 607.28C223.395 608.23 223.925 609.18 224.475 610.13C224.621 610.787 224.958 611.386 225.445 611.85C225.855 612.241 226.355 612.526 226.901 612.678C227.447 612.829 228.022 612.844 228.575 612.72L232.435 611.85L234.815 611.31L261.675 605.25C262.562 605.05 263.333 604.505 263.819 603.736C264.305 602.967 264.465 602.037 264.265 601.15Z" fill="#808080"/>
<path d="M261.185 599.31L254.085 567.86L252.385 560.31C252.198 559.479 251.688 558.756 250.968 558.3C250.248 557.845 249.377 557.693 248.545 557.88L246.285 558.39L220.095 564.3C219.264 564.487 218.541 564.997 218.085 565.717C217.63 566.437 217.479 567.309 217.665 568.14C217.895 579.59 219.095 589.98 224.025 596.32C224.586 598.786 225.79 601.059 227.515 602.909C229.24 604.759 231.424 606.118 233.845 606.85C233.905 606.87 233.955 606.89 234.015 606.91C234.055 606.92 234.105 606.94 234.145 606.95C236.424 607.591 238.827 607.653 241.135 607.13L258.755 603.15C259.586 602.963 260.309 602.453 260.765 601.733C261.221 601.013 261.372 600.141 261.185 599.31Z" fill="#343434"/>
<path d="M235.093 574.786C235.672 574.118 236.452 573.655 237.317 573.466C238.181 573.278 239.084 573.374 239.889 573.741C240.694 574.168 241.339 574.846 241.726 575.671C242.113 576.496 242.222 577.425 242.036 578.318C241.724 580.381 240.646 582.259 240.548 584.371C240.46 585.296 240.622 586.228 241.016 587.07C241.41 587.912 242.023 588.632 242.79 589.157C243.964 589.871 245.173 588.104 243.993 587.387C242.051 586.207 242.704 583.614 243.267 581.845C243.97 579.637 244.703 577.385 243.833 575.11C243.448 574.157 242.83 573.316 242.036 572.664C241.242 572.011 240.296 571.569 239.287 571.376C238.277 571.183 237.236 571.247 236.257 571.561C235.279 571.875 234.394 572.429 233.685 573.173C232.759 574.173 234.154 575.798 235.093 574.786Z" fill="#71DBF2"/>
<path d="M244.52 595.326C245.702 595.326 246.661 594.367 246.661 593.185C246.661 592.003 245.702 591.045 244.52 591.045C243.338 591.045 242.38 592.003 242.38 593.185C242.38 594.367 243.338 595.326 244.52 595.326Z" fill="#71DBF2"/>
<path d="M499.737 511.835C497.572 510.425 495.102 509.552 492.533 509.287C489.963 509.023 487.367 509.375 484.96 510.315C482.554 511.254 480.406 512.754 478.695 514.69C476.985 516.626 475.76 518.942 475.124 521.445L445.315 599.115L394.077 570.026C393.852 566.682 392.574 563.496 390.426 560.923C388.278 558.351 385.371 556.525 382.121 555.707C378.871 554.89 375.446 555.122 372.337 556.371C369.227 557.621 366.593 559.823 364.812 562.661C363.031 565.5 362.195 568.83 362.424 572.173C362.653 575.517 363.935 578.702 366.085 581.272C368.236 583.842 371.146 585.664 374.396 586.478C377.647 587.293 381.072 587.056 384.18 585.803C394.971 597.32 441.75 644.536 461.117 626.088C477.395 610.581 500.887 550.481 506.542 529.727C507.448 526.409 507.277 522.888 506.054 519.673C504.831 516.458 502.619 513.713 499.737 511.835Z" fill="#585760"/>
<path d="M443.764 629.342L453.17 671.859L521.955 678.081L528.277 641.06L443.764 629.342Z" fill="#585760"/>
<path d="M540.06 695.752H442.41L447.48 680.521L449.14 657.922L450.09 657.942L525.19 659.192L526.55 659.211L528.86 678.612C533.264 683.857 537.024 689.612 540.06 695.752Z" fill="#76767E"/>
<path d="M486.695 491.23L520.933 489.467L536.835 514.595C536.835 514.595 552.179 517.742 550.105 553C548.031 588.258 528.277 621.052 528.277 621.052L529.745 616.021L527.196 623.303L527.523 627.393L531 631.723L531.358 636.202L528.277 643.288L532.467 650.073L444.39 641.54L441.169 629.807L445.868 623.507L443.243 615.289L447.189 607.385L449.246 605.67C449.246 605.67 426.739 571.856 452.576 546.388L462.946 528.759L474.549 514.603L486.695 491.23Z" fill="#8C8C92"/>
<path d="M374.342 540.656C365.081 537.347 353.086 538.638 346.586 546.703C340.764 553.928 340.066 565.431 347.473 571.878C356.491 579.726 368.98 576.839 378.826 572.411C387.835 568.359 397.753 561.827 397.613 550.74C397.592 547.891 396.892 545.088 395.572 542.563C394.251 540.037 392.348 537.863 390.02 536.22C387.657 534.623 384.952 533.605 382.122 533.246C379.293 532.888 376.419 533.201 373.733 534.159C371.355 535.027 372.382 538.861 374.787 537.983C376.724 537.246 378.8 536.951 380.865 537.118C382.93 537.285 384.932 537.911 386.725 538.949C388.518 539.987 390.057 541.412 391.23 543.121C392.402 544.829 393.179 546.777 393.504 548.823C394.895 558.028 387.031 563.989 379.722 567.621C371.704 571.606 361.499 575.418 352.915 570.84C345.572 566.925 344.229 557.994 348.3 551.135C353.347 542.632 364.709 541.415 373.288 544.48C375.696 545.34 376.732 541.509 374.342 540.656Z" fill="#7B7986"/>
<path d="M197.074 463.682C190.422 461.305 181.807 462.232 177.138 468.026C172.957 473.215 172.455 481.476 177.776 486.107C184.252 491.744 193.223 489.67 200.294 486.49C206.766 483.58 213.889 478.888 213.789 470.925C213.773 468.879 213.271 466.865 212.322 465.052C211.374 463.238 210.007 461.676 208.334 460.496C206.637 459.349 204.694 458.618 202.662 458.36C200.63 458.103 198.566 458.328 196.636 459.015C194.929 459.64 195.666 462.393 197.394 461.762C198.785 461.233 200.276 461.021 201.759 461.141C203.242 461.261 204.68 461.71 205.968 462.456C207.256 463.202 208.361 464.225 209.203 465.452C210.046 466.679 210.604 468.078 210.837 469.548C211.836 476.159 206.188 480.441 200.938 483.05C195.179 485.911 187.849 488.65 181.684 485.362C176.41 482.549 175.446 476.135 178.37 471.209C181.995 465.101 190.155 464.227 196.317 466.428C198.046 467.046 198.791 464.295 197.074 463.682Z" fill="#4B4B4B"/>
<path d="M277.911 482.545C287.495 479.938 293.833 472.56 292.066 466.065C290.3 459.57 281.098 456.419 271.513 459.026C261.929 461.633 255.591 469.011 257.358 475.506C259.124 482.001 268.326 485.152 277.911 482.545Z" fill="#4B4B4B"/>
<path d="M233.347 459.901L233.382 482.295C233.396 482.683 233.56 483.052 233.839 483.322C234.119 483.592 234.493 483.744 234.882 483.744C235.271 483.744 235.645 483.592 235.925 483.322C236.205 483.052 236.369 482.683 236.382 482.295L236.347 459.901C236.333 459.512 236.17 459.144 235.89 458.873C235.61 458.603 235.236 458.452 234.847 458.452C234.458 458.452 234.084 458.603 233.804 458.873C233.524 459.144 233.36 459.512 233.347 459.901Z" fill="#4B4B4B"/>
<path d="M222.884 471.947L244.711 472C245.1 471.987 245.468 471.823 245.739 471.543C246.009 471.263 246.16 470.889 246.16 470.5C246.16 470.111 246.009 469.737 245.739 469.458C245.468 469.178 245.1 469.014 244.711 469L222.884 468.947C222.496 468.96 222.127 469.124 221.857 469.404C221.587 469.684 221.436 470.058 221.436 470.447C221.436 470.836 221.587 471.21 221.857 471.49C222.127 471.769 222.496 471.933 222.884 471.947Z" fill="#4B4B4B"/>
<path d="M149.925 482.87C149.952 483.209 149.845 483.545 149.626 483.805C149.407 484.066 149.094 484.229 148.755 484.26V481.32C149.1 481.402 149.405 481.602 149.619 481.885C149.832 482.168 149.94 482.516 149.925 482.87Z" fill="#4B4B4B"/>
<path d="M155.29 484.842C156.394 484.842 157.29 483.946 157.29 482.842C157.29 481.737 156.394 480.842 155.29 480.842C154.185 480.842 153.29 481.737 153.29 482.842C153.29 483.946 154.185 484.842 155.29 484.842Z" fill="#4B4B4B"/>
<path d="M222.145 664.84C218.505 664.84 215.535 667.31 215.535 670.34C215.535 673.37 218.505 675.84 222.145 675.84H586.245V664.84H222.145Z" fill="#343434"/>
<path d="M499.105 664.84V675.84H222.145C218.505 675.84 215.535 673.37 215.535 670.34C215.535 667.31 218.505 664.84 222.145 664.84H499.105Z" fill="#71DBF2"/>
<path d="M489.105 681C495.18 681 500.105 676.075 500.105 670C500.105 663.925 495.18 659 489.105 659C483.03 659 478.105 663.925 478.105 670C478.105 676.075 483.03 681 489.105 681Z" fill="#71DBF2"/>
<path d="M209.555 507.69H148.755V512.27H209.555C210.162 512.27 210.745 512.029 211.174 511.599C211.604 511.17 211.845 510.587 211.845 509.98C211.845 509.373 211.604 508.79 211.174 508.361C210.745 507.931 210.162 507.69 209.555 507.69Z" fill="#343434"/>
<path d="M361.919 471.27C363.903 466.173 371.246 464.494 375.309 468.034C377.734 470.148 379.542 473.05 382.747 474.087C386.207 475.206 389.49 473.358 392.445 471.757C393.967 470.822 395.646 470.172 397.401 469.839C398.99 469.663 400.597 469.8 402.133 470.243C405.545 471.141 408.678 472.856 411.921 474.205C415.408 475.688 419.168 476.417 422.956 476.345C427.462 476.277 431.969 476.099 436.474 475.972C441.519 475.83 446.565 475.688 451.61 475.547C456.584 475.52 461.548 475.095 466.454 474.275C468.348 473.914 467.546 471.022 465.656 471.382C461.171 472.127 456.633 472.511 452.086 472.533C447.461 472.666 442.837 472.796 438.212 472.923C433.508 473.055 428.804 473.198 424.099 473.32C422.004 473.453 419.901 473.343 417.832 472.991C416.078 472.595 414.366 472.033 412.719 471.312C409.37 469.907 406.126 468.124 402.576 467.261C399.193 466.395 395.611 466.783 392.492 468.353C389.632 469.749 386.111 472.637 382.815 470.877C379.951 469.349 378.379 466.153 375.546 464.524C369.616 461.115 361.467 464.202 359.027 470.472C358.326 472.273 361.226 473.053 361.919 471.27Z" fill="#4B4B4B"/>
<path d="M369.61 495.255C371.738 492.104 374.134 488.482 378.018 487.41C378.858 487.141 379.747 487.059 380.622 487.172C381.497 487.285 382.337 487.589 383.081 488.062C384.458 488.989 385.509 490.34 386.827 491.349C389.607 493.476 392.68 493.146 395.67 491.674C398.198 490.431 401.046 487.974 404.043 488.958C406.136 489.646 407.768 491.327 409.794 492.183C410.731 492.649 411.766 492.885 412.812 492.871C413.858 492.857 414.886 492.594 415.81 492.102C416.139 491.895 416.374 491.567 416.466 491.189C416.559 490.811 416.5 490.412 416.304 490.076C416.108 489.74 415.788 489.493 415.414 489.388C415.039 489.283 414.638 489.327 414.295 489.512C412.566 490.524 410.546 489.329 409.067 488.371C407.528 487.181 405.761 486.319 403.875 485.839C400.527 485.273 397.682 487.213 394.871 488.715C393.639 489.535 392.183 489.956 390.703 489.921C389.067 489.701 387.879 488.334 386.751 487.261C385.55 485.99 384.059 485.029 382.406 484.46C380.509 483.953 378.504 484.035 376.655 484.695C372.252 486.203 369.517 490.043 367.02 493.741C365.937 495.345 368.535 496.848 369.61 495.255Z" fill="#4B4B4B"/>
<path d="M332.321 461.742C331.837 461.997 331.288 462.1 330.745 462.038C330.201 461.976 329.689 461.751 329.276 461.393C328.863 461.035 328.567 460.56 328.428 460.031C328.289 459.502 328.313 458.944 328.496 458.429C329.369 456.219 332.544 456.73 333.747 458.284C335.463 460.502 334.67 463.577 333.098 465.616C331.151 468.142 328.153 469.577 325.367 470.966C325.118 471.119 324.918 471.341 324.793 471.605C324.667 471.869 324.62 472.163 324.658 472.453C324.696 472.743 324.817 473.015 325.006 473.238C325.195 473.461 325.445 473.624 325.725 473.708L336.741 476.099C338.624 476.507 339.428 473.616 337.539 473.206L326.522 470.815L326.881 473.557C330.013 471.995 333.204 470.323 335.398 467.508C336.443 466.287 337.158 464.819 337.476 463.243C337.795 461.668 337.706 460.037 337.218 458.506C336.742 457.06 335.781 455.823 334.497 455.004C333.214 454.186 331.687 453.836 330.175 454.013C329.419 454.101 328.69 454.344 328.034 454.729C327.378 455.114 326.809 455.631 326.364 456.248C325.919 456.865 325.608 457.568 325.45 458.312C325.292 459.056 325.291 459.825 325.447 460.57C326.184 464.404 330.532 465.986 333.835 464.333C335.562 463.469 334.044 460.88 332.321 461.742Z" fill="#4B4B4B"/>
<path d="M342.79 477.342C343.894 477.342 344.79 476.446 344.79 475.342C344.79 474.237 343.894 473.342 342.79 473.342C341.685 473.342 340.79 474.237 340.79 475.342C340.79 476.446 341.685 477.342 342.79 477.342Z" fill="#4B4B4B"/>
<path d="M391.555 507.86H325.405C324.799 507.86 324.218 508.101 323.789 508.529C323.361 508.958 323.12 509.539 323.12 510.145C323.12 510.751 323.361 511.332 323.789 511.761C324.218 512.189 324.799 512.43 325.405 512.43H391.555C392.161 512.43 392.742 512.189 393.171 511.761C393.599 511.332 393.84 510.751 393.84 510.145C393.84 509.539 393.599 508.958 393.171 508.529C392.742 508.101 392.161 507.86 391.555 507.86Z" fill="#4B4B4B"/>
<path d="M343.357 555.104H261.924C261.659 555.104 261.405 554.999 261.217 554.811C261.03 554.623 260.924 554.369 260.924 554.104C260.924 553.839 261.03 553.584 261.217 553.397C261.405 553.209 261.659 553.104 261.924 553.104H343.357C343.623 553.104 343.877 553.209 344.065 553.397C344.252 553.584 344.357 553.839 344.357 554.104C344.357 554.369 344.252 554.623 344.065 554.811C343.877 554.999 343.623 555.104 343.357 555.104Z" fill="#7B7986"/>
<path d="M256.273 568.104C261.796 568.104 266.273 563.627 266.273 558.104C266.273 552.581 261.796 548.104 256.273 548.104C250.75 548.104 246.273 552.581 246.273 558.104C246.273 563.627 250.75 568.104 256.273 568.104Z" fill="#71DBF2"/>
<path d="M192.405 412.66C190.605 415.23 187.675 416.72 184.855 418.12C175.595 422.72 166.332 427.317 157.065 431.91L157.565 432.51L157.915 432.94L158.405 433.52C155.855 436.94 153.305 440.357 150.755 443.77C150.085 444.66 149.425 445.56 148.755 446.45V390.71C149.425 390.44 150.085 390.17 150.755 389.91C157.125 387.35 163.492 384.797 169.855 382.25C173.165 380.93 176.685 379.58 180.185 380.19C187.235 381.41 190.515 389.44 192.555 396.3C194.165 401.72 195.645 408.02 192.405 412.66Z" fill="#343434"/>
<path d="M159.015 433.97C156.265 437.66 153.512 441.353 150.755 445.05C150.085 445.94 149.425 446.84 148.755 447.73V445.18C149.425 444.29 150.095 443.39 150.755 442.5C153.105 439.36 155.448 436.22 157.785 433.08C157.823 433.029 157.867 432.982 157.915 432.94C158.535 432.42 159.565 433.23 159.015 433.97Z" fill="#595959"/>
<path d="M193.615 412.14C192.075 414.94 189.335 416.67 186.575 418.1C183.425 419.73 180.215 421.27 177.035 422.85C170.535 426.07 164.045 429.29 157.565 432.51C157.505 432.54 157.435 432.57 157.375 432.6C156.495 433.04 155.595 430.2 156.565 428.83C160.415 423.39 173.485 422.92 179.585 419.89C181.125 419.12 182.665 418.36 184.215 417.59C185.634 416.928 187.013 416.184 188.345 415.36C190.752 413.952 192.509 411.653 193.235 408.96C193.734 406.435 193.676 403.831 193.065 401.33C192.505 398.62 191.753 395.953 190.815 393.35C189.055 388.37 186.205 382.3 180.525 381.02C177.845 380.42 175.105 381.11 172.585 382.01C169.645 383.07 166.755 384.31 163.855 385.47C159.485 387.22 155.118 388.97 150.755 390.72C150.085 390.99 149.425 391.25 148.755 391.52V389.89C149.425 389.62 150.085 389.35 150.755 389.08C156.315 386.86 161.878 384.633 167.445 382.4C170.185 381.142 173.046 380.171 175.985 379.5C178.79 378.952 181.699 379.446 184.165 380.89C186.629 382.533 188.613 384.8 189.915 387.46C191.342 390.239 192.478 393.158 193.305 396.17C194.805 401.23 196.325 407.21 193.615 412.14Z" fill="#595959"/>
<path d="M157.348 399.622C157.339 399.64 157.332 399.659 157.324 399.678C155.908 399.088 154.316 399.078 152.892 399.65C151.468 400.221 150.325 401.329 149.709 402.734C149.091 404.145 149.054 405.742 149.605 407.18C150.156 408.618 151.251 409.781 152.653 410.417L152.652 410.419L152.724 410.451L163.383 415.121L168.085 404.39L168.054 404.376C168.062 404.358 168.071 404.341 168.079 404.323C168.702 402.9 168.735 401.288 168.17 399.841C167.604 398.393 166.487 397.23 165.064 396.607C164.359 396.298 163.601 396.131 162.832 396.116C162.063 396.1 161.298 396.236 160.581 396.516C159.865 396.796 159.21 397.214 158.656 397.747C158.101 398.28 157.656 398.917 157.348 399.622Z" fill="#71DBF2"/>
<path d="M586.245 603.81C585.605 602.45 584.945 601.07 584.245 599.68C581.735 594.61 578.885 589.31 575.855 583.99C567.525 569.29 557.855 554.39 550.245 543.67V543.66C547.175 539.33 544.435 535.7 542.255 533.02C540.903 531.355 539.234 529.974 537.345 528.957C535.456 527.94 533.385 527.307 531.25 527.095C529.115 526.883 526.959 527.096 524.907 527.721C522.855 528.347 520.947 529.373 519.294 530.74C517.641 532.107 516.274 533.787 515.274 535.685C514.273 537.583 513.659 539.66 513.466 541.797C513.272 543.933 513.504 546.087 514.148 548.133C514.791 550.18 515.834 552.079 517.215 553.72L541.885 591.19L553.495 608.83L562.955 623.21L530.495 638.18L525.185 640.63L509.535 647.85L509.445 647.89C509.415 647.87 509.375 647.85 509.345 647.83C508.574 647.359 507.764 646.955 506.925 646.62C504.856 645.803 502.638 645.432 500.415 645.53C498.771 645.598 497.147 645.926 495.605 646.5C493.02 647.454 490.729 649.066 488.956 651.175C487.183 653.285 485.99 655.819 485.495 658.53C485.425 658.85 485.385 659.18 485.345 659.52C485.337 659.57 485.334 659.62 485.335 659.67H485.325C484.986 662.881 485.63 666.119 487.173 668.955C488.716 671.791 491.085 674.091 493.965 675.55C494.165 675.65 494.365 675.75 494.575 675.84C495.574 676.296 496.621 676.642 497.695 676.87C499.037 677.164 500.412 677.282 501.785 677.22C503.062 677.164 504.328 676.956 505.555 676.6H505.565C506.268 676.393 506.956 676.139 507.625 675.84C509.819 674.843 511.758 673.361 513.296 671.505C514.834 669.65 515.931 667.471 516.505 665.13C517.145 665.05 517.865 664.95 518.655 664.84C520.275 664.61 522.195 664.32 524.365 663.97C525.225 663.83 526.125 663.68 527.055 663.52C543.315 660.72 569.885 654.76 584.245 644.22C584.945 643.7 585.615 643.18 586.245 642.65V603.81Z" fill="#585760"/>
<path d="M185.105 685C193.942 685 201.105 677.837 201.105 669C201.105 660.163 193.942 653 185.105 653C176.268 653 169.105 660.163 169.105 669C169.105 677.837 176.268 685 185.105 685Z" fill="#71DBF2"/>
<path d="M182.677 677.621C182.538 677.621 182.399 677.593 182.271 677.539C182.079 677.462 181.915 677.328 181.8 677.156C181.685 676.984 181.625 676.782 181.627 676.575V661.847C181.627 661.64 181.688 661.439 181.803 661.267C181.917 661.095 182.08 660.962 182.271 660.883C182.462 660.804 182.671 660.783 182.874 660.823C183.076 660.864 183.262 660.963 183.408 661.109L190.772 668.473C190.968 668.669 191.077 668.934 191.077 669.211C191.077 669.487 190.968 669.753 190.772 669.949L183.408 677.313C183.313 677.41 183.199 677.487 183.073 677.54C182.948 677.593 182.813 677.621 182.677 677.621Z" fill="#343434"/>
<path d="M511.203 431.047C521.144 431.047 529.203 422.988 529.203 413.047C529.203 403.106 521.144 395.047 511.203 395.047C501.262 395.047 493.203 403.106 493.203 413.047C493.203 422.988 501.262 431.047 511.203 431.047Z" fill="#76767E"/>
<path d="M511.35 439.123C502.755 434.127 500.398 422.722 505.688 414.305C506.946 412.304 508.586 410.57 510.514 409.202C512.442 407.834 514.62 406.86 516.925 406.334C519.23 405.809 521.615 405.742 523.945 406.138C526.276 406.535 528.505 407.386 530.507 408.644C538.923 413.934 532.604 424.182 536.168 433.462C541.21 446.59 522.94 445.861 511.35 439.123Z" fill="#76767E"/>
<path d="M469.556 433.552C468.93 435.01 449.642 434.854 448.759 436.152C441.948 446.174 466.5 488.813 459.689 498.848L458.74 499.979C460.962 498.955 463.097 497.75 465.122 496.378C465.304 492.271 465.486 488.15 465.681 484.043C467.721 486.653 469.368 489.547 470.569 492.635C472.155 491.517 473.455 489.445 480.252 485.369C483.004 482.346 486.176 479.734 489.672 477.615L469.556 433.552Z" fill="#76767E"/>
<path d="M479.117 480.839C496.749 480.839 511.042 466.545 511.042 448.914C511.042 431.282 496.749 416.989 479.117 416.989C461.486 416.989 447.192 431.282 447.192 448.914C447.192 466.545 461.486 480.839 479.117 480.839Z" fill="#585760"/>
<path d="M503.364 494.904C500.765 492.731 498.955 489.761 498.217 486.455C497.627 490.47 497.781 494.559 498.672 498.517C496.943 499.817 495.266 501.052 493.681 502.17C492.48 499.082 490.833 496.188 488.793 493.578C488.598 497.685 488.416 501.806 488.234 505.913C486.209 507.285 484.074 508.49 481.852 509.514L482.801 508.383C489.612 498.348 471.987 479.878 478.798 469.856C480.708 467.049 472.078 444.861 465.501 443.86C459.651 442.976 459.898 444.666 454.231 445.901C453.643 443.446 452.729 441.081 451.514 438.868C451.838 441.334 451.763 443.836 451.294 446.277C449.279 446.355 447.694 445.072 445.548 444.744C431.861 442.651 433.252 427.846 437.06 423.154C440.882 418.474 453.568 417.071 459.417 415.55C459.95 415.03 461.159 415.355 461.692 414.861C472.902 404.602 487.894 402.903 501.385 407.45C515.773 412.299 524.744 421.684 529.348 436.152L530.668 447.73C531.853 451.453 530.363 468.774 529.348 472.547C525.403 487.211 517.001 479.891 503.364 494.904Z" fill="#76767E"/>
</g>
<rect x="148" y="365" width="439" height="333" rx="16" stroke="#8C8C92" stroke-width="2"/>
<defs>
<clipPath id="clip0_47_782">
<rect x="149" y="366" width="437" height="331" rx="15" fill="white"/>
</clipPath>
</defs>
</svg>
