<svg width="969" height="1164" viewBox="0 0 969 1164" fill="none" xmlns="http://www.w3.org/2000/svg">
<path d="M976.5 1098.5C872.126 1173.68 721.578 1167.63 551 1156.5C380.422 1145.37 194.5 1127.5 144.5 1087C94.5 1046.5 -18.3815 913.433 3.85228 760.772C25.8502 607.992 63.5029 486.967 130.733 396.412C197.608 305.974 294.179 245.769 400.22 157.256C506.261 68.742 622.009 -48.5527 746.96 -63.5398C871.912 -78.5268 1006.3 8.32209 1149.05 113.232C1291.57 218.023 1442.67 340.993 1441.93 472.554C1441.43 604.232 1289.08 744.502 1188.87 892.017C1088.66 1039.53 1080.99 1023.08 976.5 1098.5Z" fill="black" fill-opacity="0.2"/>
</svg>
