<svg width="289" height="60" viewBox="0 0 289 60" fill="none" xmlns="http://www.w3.org/2000/svg">
<path d="M33.9844 23.7188H3.51562C3.20482 23.7188 2.90675 23.8422 2.68698 24.062C2.46722 24.2818 2.34375 24.5798 2.34375 24.8906L2.34375 27.2344C2.34375 27.5452 2.46722 27.8432 2.68698 28.063C2.90675 28.2828 3.20482 28.4062 3.51562 28.4062H33.9844C34.2952 28.4062 34.5932 28.2828 34.813 28.063C35.0328 27.8432 35.1562 27.5452 35.1562 27.2344V24.8906C35.1562 24.5798 35.0328 24.2818 34.813 24.062C34.5932 23.8422 34.2952 23.7188 33.9844 23.7188ZM33.9844 42.4688H3.51562C3.20482 42.4688 2.90675 42.5922 2.68698 42.812C2.46722 43.0318 2.34375 43.3298 2.34375 43.6406L2.34375 45.9844C2.34375 46.2952 2.46722 46.5932 2.68698 46.813C2.90675 47.0328 3.20482 47.1562 3.51562 47.1562H33.9844C34.2952 47.1562 34.5932 47.0328 34.813 46.813C35.0328 46.5932 35.1562 46.2952 35.1562 45.9844V43.6406C35.1562 43.3298 35.0328 43.0318 34.813 42.812C34.5932 42.5922 34.2952 42.4688 33.9844 42.4688ZM10.2612 19.0313H27.2395C27.3558 19.0313 27.4711 19.0083 27.5785 18.9638C27.686 18.9192 27.7837 18.8539 27.8659 18.7716C27.9481 18.6893 28.0133 18.5916 28.0578 18.4841C28.1023 18.3766 28.1251 18.2614 28.125 18.145V15.2292C28.125 15.113 28.1021 14.9978 28.0576 14.8904C28.0131 14.7829 27.9479 14.6853 27.8656 14.6031C27.7834 14.5209 27.6858 14.4557 27.5784 14.4112C27.4709 14.3667 27.3558 14.3438 27.2395 14.3438H10.2612C10.1449 14.3437 10.0297 14.3665 9.92214 14.4109C9.81462 14.4554 9.71692 14.5206 9.63462 14.6028C9.55231 14.6851 9.48702 14.7827 9.44247 14.8902C9.39793 14.9977 9.375 15.1129 9.375 15.2292V18.145C9.375 18.3801 9.46837 18.6055 9.63457 18.7717C9.80077 18.9379 10.0262 19.0313 10.2612 19.0313ZM27.2395 37.7812C27.3558 37.7813 27.4711 37.7583 27.5785 37.7138C27.686 37.6692 27.7837 37.6039 27.8659 37.5216C27.9481 37.4393 28.0133 37.3416 28.0578 37.2341C28.1023 37.1266 28.1251 37.0114 28.125 36.895V33.9792C28.125 33.7444 28.0317 33.5192 27.8656 33.3531C27.6996 33.187 27.4744 33.0938 27.2395 33.0938H10.2612C10.1449 33.0937 10.0297 33.1165 9.92214 33.1609C9.81462 33.2054 9.71692 33.2706 9.63462 33.3528C9.55231 33.4351 9.48702 33.5327 9.44247 33.6402C9.39793 33.7477 9.375 33.8629 9.375 33.9792V36.895C9.375 37.0114 9.39792 37.1266 9.44246 37.2342C9.487 37.3417 9.55228 37.4394 9.63457 37.5217C9.71686 37.604 9.81456 37.6693 9.92208 37.7138C10.0296 37.7583 10.1448 37.7812 10.2612 37.7812H27.2395Z" fill="#71DBF2"/>
<path d="M58.438 43V16.972H67.24C69.1 16.972 70.756 17.284 72.208 17.908C73.66 18.532 74.8 19.456 75.628 20.68C76.468 21.904 76.888 23.41 76.888 25.198C76.888 26.926 76.498 28.402 75.718 29.626C74.95 30.85 73.876 31.78 72.496 32.416C71.116 33.052 69.514 33.37 67.69 33.37H61.858V43H58.438ZM61.84 30.562H67.618C69.406 30.562 70.858 30.064 71.974 29.068C73.09 28.072 73.648 26.716 73.648 25C73.648 23.272 73.072 21.964 71.92 21.076C70.768 20.188 69.28 19.744 67.456 19.744H61.84V30.562ZM80.6759 43V24.388H83.8439V27.97C84.1559 27.082 84.5939 26.35 85.1579 25.774C85.7219 25.186 86.3639 24.748 87.0839 24.46C87.8159 24.172 88.5719 24.028 89.3519 24.028C89.6279 24.028 89.8979 24.046 90.1619 24.082C90.4259 24.118 90.6299 24.178 90.7739 24.262V27.484C90.5939 27.4 90.3599 27.346 90.0719 27.322C89.7959 27.286 89.5619 27.268 89.3699 27.268C88.6259 27.22 87.9299 27.268 87.2819 27.412C86.6339 27.544 86.0639 27.778 85.5719 28.114C85.0799 28.45 84.6899 28.894 84.4019 29.446C84.1259 29.986 83.9879 30.646 83.9879 31.426V43H80.6759ZM101.644 43.36C99.9282 43.36 98.4282 42.994 97.1442 42.262C95.8602 41.518 94.8642 40.432 94.1562 39.004C93.4482 37.576 93.0942 35.83 93.0942 33.766C93.0942 31.822 93.4242 30.118 94.0842 28.654C94.7442 27.19 95.7102 26.056 96.9822 25.252C98.2662 24.436 99.8202 24.028 101.644 24.028C103.36 24.028 104.848 24.406 106.108 25.162C107.38 25.906 108.364 27.004 109.06 28.456C109.756 29.908 110.104 31.678 110.104 33.766C110.104 35.662 109.78 37.33 109.132 38.77C108.496 40.21 107.548 41.338 106.288 42.154C105.04 42.958 103.492 43.36 101.644 43.36ZM101.644 40.732C102.76 40.732 103.702 40.45 104.47 39.886C105.238 39.322 105.82 38.512 106.216 37.456C106.612 36.4 106.81 35.146 106.81 33.694C106.81 32.362 106.636 31.168 106.288 30.112C105.94 29.044 105.382 28.198 104.614 27.574C103.858 26.95 102.868 26.638 101.644 26.638C100.516 26.638 99.5622 26.92 98.7822 27.484C98.0022 28.036 97.4082 28.84 97.0002 29.896C96.6042 30.952 96.4062 32.218 96.4062 33.694C96.4062 35.002 96.5862 36.19 96.9462 37.258C97.3062 38.326 97.8702 39.172 98.6382 39.796C99.4062 40.42 100.408 40.732 101.644 40.732ZM118.313 43.828C118.313 45.568 117.935 46.858 117.179 47.698C116.435 48.55 115.115 48.976 113.219 48.976C112.199 48.976 111.557 48.904 111.293 48.76C111.017 48.616 110.879 48.544 110.879 48.544V46.33L112.715 46.24C113.555 46.18 114.143 45.958 114.479 45.574C114.815 45.19 114.983 44.572 114.983 43.72V24.388H118.313V43.828ZM118.403 16.99V20.446H114.875V16.99H118.403ZM126.294 34.468C126.294 35.644 126.486 36.712 126.87 37.672C127.266 38.62 127.86 39.376 128.652 39.94C129.456 40.504 130.458 40.786 131.658 40.786C132.846 40.786 133.866 40.51 134.718 39.958C135.582 39.406 136.134 38.608 136.374 37.564H139.524C139.296 38.824 138.792 39.886 138.012 40.75C137.232 41.614 136.29 42.268 135.186 42.712C134.082 43.144 132.93 43.36 131.73 43.36C129.99 43.36 128.46 42.982 127.14 42.226C125.82 41.47 124.788 40.384 124.044 38.968C123.3 37.552 122.928 35.854 122.928 33.874C122.928 31.918 123.264 30.202 123.936 28.726C124.608 27.25 125.58 26.098 126.852 25.27C128.136 24.442 129.678 24.028 131.478 24.028C133.23 24.028 134.712 24.406 135.924 25.162C137.136 25.918 138.054 26.986 138.678 28.366C139.314 29.734 139.632 31.36 139.632 33.244V34.468H126.294ZM126.312 32.218H136.428C136.428 31.15 136.248 30.19 135.888 29.338C135.528 28.474 134.976 27.796 134.232 27.304C133.5 26.8 132.576 26.548 131.46 26.548C130.296 26.548 129.33 26.83 128.562 27.394C127.806 27.946 127.236 28.66 126.852 29.536C126.48 30.4 126.3 31.294 126.312 32.218ZM151.619 24.028C152.951 24.028 154.151 24.286 155.219 24.802C156.287 25.306 157.157 26.026 157.829 26.962C158.513 27.898 158.939 29.002 159.107 30.274H156.155C156.047 29.626 155.795 29.032 155.399 28.492C155.015 27.952 154.505 27.52 153.869 27.196C153.233 26.872 152.489 26.71 151.637 26.71C150.041 26.71 148.745 27.286 147.749 28.438C146.753 29.59 146.255 31.354 146.255 33.73C146.255 35.878 146.711 37.6 147.623 38.896C148.547 40.18 149.903 40.822 151.691 40.822C152.543 40.822 153.281 40.66 153.905 40.336C154.541 40 155.051 39.562 155.435 39.022C155.819 38.47 156.065 37.882 156.173 37.258H159.071C158.915 38.506 158.495 39.586 157.811 40.498C157.127 41.41 156.251 42.118 155.183 42.622C154.127 43.114 152.939 43.36 151.619 43.36C149.951 43.36 148.469 42.994 147.173 42.262C145.889 41.53 144.881 40.45 144.149 39.022C143.417 37.594 143.051 35.842 143.051 33.766C143.051 31.822 143.381 30.124 144.041 28.672C144.713 27.208 145.685 26.068 146.957 25.252C148.241 24.436 149.795 24.028 151.619 24.028ZM172.468 26.818H168.274V38.392C168.274 39.052 168.34 39.538 168.472 39.85C168.616 40.15 168.85 40.342 169.174 40.426C169.51 40.51 169.966 40.552 170.542 40.552H172.576V42.784C172.348 42.868 172 42.94 171.532 43C171.076 43.06 170.506 43.09 169.822 43.09C168.538 43.09 167.542 42.916 166.834 42.568C166.126 42.22 165.628 41.704 165.34 41.02C165.064 40.336 164.926 39.496 164.926 38.5V26.818H161.902V24.388H165.016L165.826 18.97H168.274V24.37H172.468V26.818ZM203.169 16.972H206.499V43H203.529L189.561 22.48V43H186.231V16.972H189.417L203.169 37.204V16.972ZM217.73 43.36C216.53 43.36 215.468 43.15 214.544 42.73C213.62 42.298 212.894 41.68 212.366 40.876C211.85 40.072 211.592 39.1 211.592 37.96C211.592 35.896 212.312 34.36 213.752 33.352C215.192 32.344 217.502 31.804 220.682 31.732L224.012 31.642V30.184C224.012 29.044 223.67 28.144 222.986 27.484C222.302 26.812 221.24 26.476 219.8 26.476C218.732 26.488 217.79 26.74 216.974 27.232C216.17 27.724 215.648 28.528 215.408 29.644H212.474C212.546 28.432 212.888 27.412 213.5 26.584C214.112 25.744 214.964 25.108 216.056 24.676C217.16 24.244 218.462 24.028 219.962 24.028C221.582 24.028 222.926 24.256 223.994 24.712C225.074 25.168 225.878 25.84 226.406 26.728C226.946 27.616 227.216 28.708 227.216 30.004V43H224.372L224.138 39.508C223.418 40.96 222.5 41.968 221.384 42.532C220.28 43.084 219.062 43.36 217.73 43.36ZM218.738 40.966C219.362 40.966 219.98 40.852 220.592 40.624C221.216 40.396 221.786 40.09 222.302 39.706C222.818 39.31 223.226 38.872 223.526 38.392C223.838 37.9 224 37.396 224.012 36.88V33.694L221.24 33.748C219.824 33.772 218.636 33.916 217.676 34.18C216.728 34.444 216.014 34.858 215.534 35.422C215.066 35.986 214.832 36.724 214.832 37.636C214.832 38.68 215.192 39.496 215.912 40.084C216.644 40.672 217.586 40.966 218.738 40.966ZM232.902 43V24.388H236.106V27.088C236.622 26.272 237.33 25.558 238.23 24.946C239.13 24.334 240.3 24.028 241.74 24.028C242.412 24.028 243.096 24.142 243.792 24.37C244.5 24.598 245.148 24.94 245.736 25.396C246.324 25.852 246.78 26.41 247.104 27.07C247.68 26.158 248.46 25.426 249.444 24.874C250.428 24.31 251.538 24.028 252.774 24.028C253.422 24.028 254.1 24.13 254.808 24.334C255.516 24.526 256.17 24.874 256.77 25.378C257.382 25.87 257.88 26.56 258.264 27.448C258.648 28.324 258.84 29.452 258.84 30.832V43H255.492V31.156C255.492 30.028 255.312 29.158 254.952 28.546C254.592 27.922 254.118 27.484 253.53 27.232C252.954 26.98 252.336 26.854 251.676 26.854C251.1 26.854 250.488 26.968 249.84 27.196C249.192 27.424 248.64 27.808 248.184 28.348C247.728 28.888 247.5 29.626 247.5 30.562V43H244.188V30.184C244.188 29.452 243.99 28.84 243.594 28.348C243.21 27.856 242.724 27.484 242.136 27.232C241.56 26.98 240.984 26.854 240.408 26.854C239.772 26.854 239.13 26.98 238.482 27.232C237.846 27.484 237.306 27.886 236.862 28.438C236.43 28.978 236.214 29.686 236.214 30.562V43H232.902ZM266.427 34.468C266.427 35.644 266.619 36.712 267.003 37.672C267.399 38.62 267.993 39.376 268.785 39.94C269.589 40.504 270.591 40.786 271.791 40.786C272.979 40.786 273.999 40.51 274.851 39.958C275.715 39.406 276.267 38.608 276.507 37.564H279.657C279.429 38.824 278.925 39.886 278.145 40.75C277.365 41.614 276.423 42.268 275.319 42.712C274.215 43.144 273.063 43.36 271.863 43.36C270.123 43.36 268.593 42.982 267.273 42.226C265.953 41.47 264.921 40.384 264.177 38.968C263.433 37.552 263.061 35.854 263.061 33.874C263.061 31.918 263.397 30.202 264.069 28.726C264.741 27.25 265.713 26.098 266.985 25.27C268.269 24.442 269.811 24.028 271.611 24.028C273.363 24.028 274.845 24.406 276.057 25.162C277.269 25.918 278.187 26.986 278.811 28.366C279.447 29.734 279.765 31.36 279.765 33.244V34.468H266.427ZM266.445 32.218H276.561C276.561 31.15 276.381 30.19 276.021 29.338C275.661 28.474 275.109 27.796 274.365 27.304C273.633 26.8 272.709 26.548 271.593 26.548C270.429 26.548 269.463 26.83 268.695 27.394C267.939 27.946 267.369 28.66 266.985 29.536C266.613 30.4 266.433 31.294 266.445 32.218Z" fill="white"/>
</svg>
