<svg width="168" height="188" viewBox="0 0 168 188" fill="none" xmlns="http://www.w3.org/2000/svg">
<path fill-rule="evenodd" clip-rule="evenodd" d="M158 111.321C171.333 103.623 171.333 84.3775 158 76.6795L30.5 3.06736C17.1667 -4.63064 0.5 4.99187 0.5 20.3879V167.612C0.5 183.008 17.1667 192.631 30.5 184.933L158 111.321ZM20 112.465C20 117.725 24.9896 121.554 30.0705 120.192L98.3027 101.909C106.209 99.7911 106.209 88.573 98.3027 86.4546L30.0705 68.1719C24.9896 66.8104 20 70.6391 20 75.8993V112.465ZM20 139.382C20 135.761 22.432 132.592 25.9295 131.655L73.488 118.911C82.5236 116.49 87.6597 128.89 79.5585 133.567L32 161.025C26.6667 164.104 20 160.255 20 154.097V139.382ZM74.5027 69.7247C83.5384 72.1458 88.6744 59.7462 80.5732 55.069L32 27.0253C26.6667 23.9461 20 27.7951 20 33.9535V48.9821C20 52.6029 22.432 55.7724 25.9295 56.7095L74.5027 69.7247ZM147.915 94.0135C147.905 94.0518 147.946 94.0834 147.98 94.0636C148.01 94.0465 148.01 94.0037 147.98 93.9865C147.955 93.9719 147.923 93.9853 147.915 94.0135Z" fill="#71DBF2"/>
<path fill-rule="evenodd" clip-rule="evenodd" d="M159.637 77.7283C171.309 86.0018 170.763 103.952 158 111.321L115.772 135.701C126.562 125.29 133.273 110.679 133.273 94.5002C133.273 76.809 125.248 60.9921 112.64 50.4912L158.002 76.6808C158.571 77.0095 159.116 77.3593 159.637 77.7283Z" fill="white" fill-opacity="0.5"/>
</svg>
